<mxfile host="app.diagrams.net" modified="2020-12-06T07:36:09.554Z" agent="5.0 (Windows)" etag="2btDE2i1EoqLtVJz6AAU" version="13.10.9" type="github">
  <diagram id="-cmlFGgi6j457TbQA-Bj" name="Page-1">
    <mxGraphModel dx="1038" dy="547" grid="1" gridSize="10" guides="1" tooltips="1" connect="1" arrows="1" fold="1" page="1" pageScale="1" pageWidth="1169" pageHeight="827" math="0" shadow="0">
      <root>
        <mxCell id="0" />
        <mxCell id="1" parent="0" />
        <mxCell id="1EdCu9Syr2TYHE6o0lRG-1" value="&#xa;FIXED ASSET MANAGEMENT&#xa;" style="swimlane;" vertex="1" parent="1">
          <mxGeometry x="10" y="10" width="1150" height="810" as="geometry" />
        </mxCell>
        <mxCell id="1EdCu9Syr2TYHE6o0lRG-2" value="Start" style="rounded=1;whiteSpace=wrap;html=1;" vertex="1" parent="1EdCu9Syr2TYHE6o0lRG-1">
          <mxGeometry x="250" y="30" width="100" height="50" as="geometry" />
        </mxCell>
      </root>
    </mxGraphModel>
  </diagram>
</mxfile>
